<svg width="108" height="124" viewBox="0 0 108 124" fill="none" xmlns="http://www.w3.org/2000/svg">
<path fill-rule="evenodd" clip-rule="evenodd" d="M107.8 31.1L107.5 31.3C107.9 32.2 108 33.1 107.9 33.9V89.7C107.9 91.6 106.7 94.1 105 95.1L57 123C56.2 123.4 55.1 123.7 53.9 123.7C52.7 123.7 51.6 123.5 50.8 123L2.6 95.1C1.9 94.7 1.2 94 0.7 93.2L0.9 93.1C0.2 92 0 90.8 0 89.7V34C0 32.1 1.2 29.6 2.9 28.6L50.9 0.7C51.7 0.3 52.8 0 54 0C55.2 0 56.3 0.2 57.1 0.7L105.4 28.5C106.3 29 107.2 30 107.8 31.1ZM19.718 46.4L8.966 75.8H14.594L16.988 68.996H28.454L30.806 75.8H36.518L25.766 46.4H19.718ZM26.984 64.7961H18.458L22.7 52.574L26.984 64.7961ZM44.6312 75.2121C46.2832 75.94 48.1872 76.304 50.3432 76.304C52.5832 76.304 54.4732 75.912 56.0132 75.1281C57.5532 74.316 58.7152 73.2521 59.4992 71.9361C60.2832 70.62 60.6752 69.192 60.6752 67.652C60.6752 65.916 60.3112 64.502 59.5832 63.41C58.8552 62.29 57.8892 61.394 56.6852 60.722C55.4812 60.05 54.1512 59.462 52.6952 58.958C51.3232 58.51 50.1052 58.09 49.0412 57.698C47.9772 57.306 47.1372 56.83 46.5212 56.27C45.9052 55.682 45.5972 54.898 45.5972 53.918C45.5972 52.77 45.9892 51.902 46.7732 51.314C47.5852 50.698 48.5792 50.404 49.7552 50.432C51.1272 50.432 52.1912 50.838 52.9472 51.65C53.7312 52.434 54.1372 53.344 54.1652 54.38H59.9192C59.8632 52.644 59.4012 51.146 58.5332 49.886C57.6932 48.626 56.5172 47.646 55.0052 46.946C53.5212 46.246 51.7992 45.896 49.8392 45.896C47.9072 45.896 46.1992 46.246 44.7152 46.946C43.2312 47.618 42.0552 48.584 41.1872 49.844C40.3472 51.076 39.9412 52.56 39.9692 54.296C39.9692 56.34 40.5572 57.9781 41.7332 59.21C42.9372 60.442 44.6732 61.45 46.9412 62.234C48.3412 62.71 49.6572 63.1581 50.8892 63.578C52.1212 63.998 53.1012 64.544 53.8292 65.216C54.5852 65.888 54.9632 66.826 54.9632 68.0301C54.9632 69.178 54.5432 70.1021 53.7032 70.802C52.8632 71.474 51.7292 71.8101 50.3012 71.8101C48.6492 71.8101 47.3472 71.348 46.3952 70.424C45.4712 69.472 44.9812 68.3101 44.9252 66.938H39.2552C39.2832 68.926 39.7732 70.62 40.7252 72.0201C41.6772 73.3921 42.9792 74.456 44.6312 75.2121ZM65.3658 46.4V75.8H70.7418V55.514L78.9318 71.6001H83.1738L91.3638 55.514V75.8H96.7398V46.4H90.3558L81.1158 65.048L71.7498 46.4H65.3658Z" fill="white"/>
</svg>
